<mxfile host="app.diagrams.net" modified="2020-11-25T16:15:19.830Z" agent="5.0 (Windows NT 6.1; Win64; x64) AppleWebKit/537.36 (KHTML, like Gecko) Chrome/87.0.4280.66 Safari/537.36" etag="P5P4BKe03loYpFfDR65Z" version="13.10.2" type="github">
  <diagram name="Page-1" id="c7488fd3-1785-93aa-aadb-54a6760d102a">
    <mxGraphModel dx="1897" dy="852" grid="1" gridSize="10" guides="1" tooltips="1" connect="1" arrows="1" fold="1" page="1" pageScale="1" pageWidth="1654" pageHeight="1169" background="#ffffff" math="0" shadow="0">
      <root>
        <mxCell id="0" />
        <mxCell id="1" parent="0" />
        <mxCell id="MaADvUMPTTQarUst9Aev-20" value="Pool" style="swimlane;html=1;childLayout=stackLayout;resizeParent=1;resizeParentMax=0;horizontal=0;startSize=20;horizontalStack=0;" parent="1" vertex="1">
          <mxGeometry x="70" y="270" width="1560" height="510" as="geometry" />
        </mxCell>
        <mxCell id="MaADvUMPTTQarUst9Aev-22" value="Сервис ГБУ ЦНД" style="swimlane;html=1;startSize=20;horizontal=0;" parent="MaADvUMPTTQarUst9Aev-20" vertex="1">
          <mxGeometry x="20" width="1540" height="260" as="geometry" />
        </mxCell>
        <mxCell id="MaADvUMPTTQarUst9Aev-3" value="Обработать данные по ошибке ФИАС" style="shape=ext;rounded=1;html=1;whiteSpace=wrap;" parent="MaADvUMPTTQarUst9Aev-22" vertex="1">
          <mxGeometry x="130" y="90" width="120" height="80" as="geometry" />
        </mxCell>
        <mxCell id="MaADvUMPTTQarUst9Aev-2" value="" style="endArrow=classic;html=1;exitX=1;exitY=0.5;exitDx=0;exitDy=0;entryX=0;entryY=0.5;entryDx=0;entryDy=0;" parent="MaADvUMPTTQarUst9Aev-22" source="MaADvUMPTTQarUst9Aev-32" target="MaADvUMPTTQarUst9Aev-3" edge="1">
          <mxGeometry width="50" height="50" relative="1" as="geometry">
            <mxPoint x="90" y="200" as="sourcePoint" />
            <mxPoint x="200" y="-85" as="targetPoint" />
          </mxGeometry>
        </mxCell>
        <mxCell id="MaADvUMPTTQarUst9Aev-6" value="Преобразовать данные в JSON" style="shape=ext;rounded=1;html=1;whiteSpace=wrap;" parent="MaADvUMPTTQarUst9Aev-22" vertex="1">
          <mxGeometry x="290" y="90" width="120" height="80" as="geometry" />
        </mxCell>
        <mxCell id="MaADvUMPTTQarUst9Aev-15" value="Отправить в СПД Клауд" style="shape=ext;rounded=1;html=1;whiteSpace=wrap;" parent="MaADvUMPTTQarUst9Aev-22" vertex="1">
          <mxGeometry x="450" y="90" width="120" height="80" as="geometry" />
        </mxCell>
        <mxCell id="MaADvUMPTTQarUst9Aev-32" value="Каждый четверг" style="shape=mxgraph.bpmn.shape;html=1;verticalLabelPosition=bottom;labelBackgroundColor=#ffffff;verticalAlign=top;align=center;perimeter=ellipsePerimeter;outlineConnect=0;outline=standard;symbol=timer;" parent="MaADvUMPTTQarUst9Aev-22" vertex="1">
          <mxGeometry x="40" y="105" width="50" height="50" as="geometry" />
        </mxCell>
        <mxCell id="MaADvUMPTTQarUst9Aev-36" value="" style="endArrow=classic;html=1;exitX=1;exitY=0.5;exitDx=0;exitDy=0;entryX=0;entryY=0.5;entryDx=0;entryDy=0;" parent="MaADvUMPTTQarUst9Aev-22" source="MaADvUMPTTQarUst9Aev-3" target="MaADvUMPTTQarUst9Aev-6" edge="1">
          <mxGeometry width="50" height="50" relative="1" as="geometry">
            <mxPoint x="250" y="330" as="sourcePoint" />
            <mxPoint x="300" y="280" as="targetPoint" />
          </mxGeometry>
        </mxCell>
        <mxCell id="MaADvUMPTTQarUst9Aev-37" value="" style="endArrow=classic;html=1;exitX=1;exitY=0.5;exitDx=0;exitDy=0;" parent="MaADvUMPTTQarUst9Aev-22" source="MaADvUMPTTQarUst9Aev-6" target="MaADvUMPTTQarUst9Aev-15" edge="1">
          <mxGeometry width="50" height="50" relative="1" as="geometry">
            <mxPoint x="310" y="360" as="sourcePoint" />
            <mxPoint x="360" y="310" as="targetPoint" />
          </mxGeometry>
        </mxCell>
        <mxCell id="MaADvUMPTTQarUst9Aev-48" value="JSON" style="shape=mxgraph.bpmn.shape;html=1;verticalLabelPosition=bottom;labelBackgroundColor=#ffffff;verticalAlign=top;align=center;perimeter=ellipsePerimeter;outlineConnect=0;outline=throwing;symbol=general;" parent="MaADvUMPTTQarUst9Aev-22" vertex="1">
          <mxGeometry x="1015" y="105" width="50" height="50" as="geometry" />
        </mxCell>
        <mxCell id="MaADvUMPTTQarUst9Aev-51" value="" style="endArrow=block;endFill=1;endSize=6;html=1;exitX=1;exitY=0.5;exitDx=0;exitDy=0;entryX=0;entryY=0.5;entryDx=0;entryDy=0;" parent="MaADvUMPTTQarUst9Aev-22" source="MaADvUMPTTQarUst9Aev-15" target="MaADvUMPTTQarUst9Aev-48" edge="1">
          <mxGeometry width="100" relative="1" as="geometry">
            <mxPoint x="670" y="140" as="sourcePoint" />
            <mxPoint x="770" y="140" as="targetPoint" />
          </mxGeometry>
        </mxCell>
        <mxCell id="MaADvUMPTTQarUst9Aev-53" value="" style="endArrow=block;endFill=1;endSize=6;html=1;exitX=1;exitY=0.5;exitDx=0;exitDy=0;entryX=0;entryY=0.5;entryDx=0;entryDy=0;" parent="MaADvUMPTTQarUst9Aev-22" source="MaADvUMPTTQarUst9Aev-48" target="MaADvUMPTTQarUst9Aev-54" edge="1">
          <mxGeometry width="100" relative="1" as="geometry">
            <mxPoint x="1180" y="129" as="sourcePoint" />
            <mxPoint x="1100" y="129" as="targetPoint" />
          </mxGeometry>
        </mxCell>
        <mxCell id="MaADvUMPTTQarUst9Aev-54" value="Обработать решение по заявке&amp;nbsp;" style="shape=ext;rounded=1;html=1;whiteSpace=wrap;" parent="MaADvUMPTTQarUst9Aev-22" vertex="1">
          <mxGeometry x="1100" y="90" width="120" height="80" as="geometry" />
        </mxCell>
        <mxCell id="MaADvUMPTTQarUst9Aev-67" value="Ошибка ФИАС исправлена&lt;br&gt;&amp;nbsp;" style="shape=mxgraph.bpmn.shape;html=1;verticalLabelPosition=bottom;labelBackgroundColor=#ffffff;verticalAlign=top;align=center;perimeter=ellipsePerimeter;outlineConnect=0;outline=end;symbol=general;" parent="MaADvUMPTTQarUst9Aev-22" vertex="1">
          <mxGeometry x="1280" y="105" width="50" height="50" as="geometry" />
        </mxCell>
        <mxCell id="MaADvUMPTTQarUst9Aev-70" value="" style="endArrow=block;endFill=1;endSize=6;html=1;exitX=1;exitY=0.5;exitDx=0;exitDy=0;entryX=0;entryY=0.5;entryDx=0;entryDy=0;" parent="MaADvUMPTTQarUst9Aev-22" source="MaADvUMPTTQarUst9Aev-54" target="MaADvUMPTTQarUst9Aev-67" edge="1">
          <mxGeometry width="100" relative="1" as="geometry">
            <mxPoint x="1200" y="230" as="sourcePoint" />
            <mxPoint x="1300" y="230" as="targetPoint" />
          </mxGeometry>
        </mxCell>
        <mxCell id="MaADvUMPTTQarUst9Aev-23" value="СПД Клауд" style="swimlane;html=1;startSize=20;horizontal=0;" parent="MaADvUMPTTQarUst9Aev-20" vertex="1">
          <mxGeometry x="20" y="260" width="1540" height="250" as="geometry" />
        </mxCell>
        <mxCell id="MaADvUMPTTQarUst9Aev-27" value="СПД Клауд" style="swimlane;html=1;startSize=20;horizontal=0;" parent="MaADvUMPTTQarUst9Aev-23" vertex="1">
          <mxGeometry width="1540" height="250" as="geometry" />
        </mxCell>
        <mxCell id="MaADvUMPTTQarUst9Aev-24" value="JSON" style="shape=mxgraph.bpmn.shape;html=1;verticalLabelPosition=bottom;labelBackgroundColor=#ffffff;verticalAlign=top;align=center;perimeter=ellipsePerimeter;outlineConnect=0;outline=standard;symbol=general;" parent="MaADvUMPTTQarUst9Aev-27" vertex="1">
          <mxGeometry x="485" y="100" width="50" height="50" as="geometry" />
        </mxCell>
        <mxCell id="MaADvUMPTTQarUst9Aev-26" value="Создать заявку на исправление ошибки" style="shape=ext;rounded=1;html=1;whiteSpace=wrap;" parent="MaADvUMPTTQarUst9Aev-27" vertex="1">
          <mxGeometry x="570" y="85" width="120" height="80" as="geometry" />
        </mxCell>
        <mxCell id="MaADvUMPTTQarUst9Aev-38" value="" style="endArrow=block;endFill=1;endSize=6;html=1;exitX=1;exitY=0.5;exitDx=0;exitDy=0;entryX=0;entryY=0.5;entryDx=0;entryDy=0;" parent="MaADvUMPTTQarUst9Aev-27" source="MaADvUMPTTQarUst9Aev-24" target="MaADvUMPTTQarUst9Aev-26" edge="1">
          <mxGeometry width="100" relative="1" as="geometry">
            <mxPoint x="550" y="240" as="sourcePoint" />
            <mxPoint x="650" y="240" as="targetPoint" />
          </mxGeometry>
        </mxCell>
        <mxCell id="MaADvUMPTTQarUst9Aev-41" value="Обработать заявку" style="shape=ext;rounded=1;html=1;whiteSpace=wrap;" parent="MaADvUMPTTQarUst9Aev-27" vertex="1">
          <mxGeometry x="730" y="85" width="120" height="80" as="geometry" />
        </mxCell>
        <mxCell id="MaADvUMPTTQarUst9Aev-42" value="" style="endArrow=block;endFill=1;endSize=6;html=1;exitX=1;exitY=0.5;exitDx=0;exitDy=0;entryX=0;entryY=0.5;entryDx=0;entryDy=0;" parent="MaADvUMPTTQarUst9Aev-27" source="MaADvUMPTTQarUst9Aev-26" target="MaADvUMPTTQarUst9Aev-41" edge="1">
          <mxGeometry width="100" relative="1" as="geometry">
            <mxPoint x="690" y="230" as="sourcePoint" />
            <mxPoint x="790" y="230" as="targetPoint" />
          </mxGeometry>
        </mxCell>
        <mxCell id="MaADvUMPTTQarUst9Aev-44" value="14 дней" style="shape=mxgraph.bpmn.shape;html=1;verticalLabelPosition=bottom;labelBackgroundColor=#ffffff;verticalAlign=top;align=center;perimeter=ellipsePerimeter;outlineConnect=0;outline=boundInt;symbol=timer;" parent="MaADvUMPTTQarUst9Aev-27" vertex="1">
          <mxGeometry x="890" y="100" width="50" height="50" as="geometry" />
        </mxCell>
        <mxCell id="MaADvUMPTTQarUst9Aev-45" value="" style="endArrow=block;endFill=1;endSize=6;html=1;exitX=1;exitY=0.5;exitDx=0;exitDy=0;entryX=0;entryY=0.5;entryDx=0;entryDy=0;" parent="MaADvUMPTTQarUst9Aev-27" source="MaADvUMPTTQarUst9Aev-41" target="MaADvUMPTTQarUst9Aev-44" edge="1">
          <mxGeometry width="100" relative="1" as="geometry">
            <mxPoint x="880" y="230" as="sourcePoint" />
            <mxPoint x="980" y="230" as="targetPoint" />
          </mxGeometry>
        </mxCell>
        <mxCell id="MaADvUMPTTQarUst9Aev-46" value="Отправить решение по заявке в сервис ГБУ ЦНД" style="shape=ext;rounded=1;html=1;whiteSpace=wrap;" parent="MaADvUMPTTQarUst9Aev-27" vertex="1">
          <mxGeometry x="980" y="85" width="120" height="80" as="geometry" />
        </mxCell>
        <mxCell id="MaADvUMPTTQarUst9Aev-47" value="" style="endArrow=block;endFill=1;endSize=6;html=1;exitX=1;exitY=0.5;exitDx=0;exitDy=0;entryX=0;entryY=0.5;entryDx=0;entryDy=0;" parent="MaADvUMPTTQarUst9Aev-27" source="MaADvUMPTTQarUst9Aev-44" target="MaADvUMPTTQarUst9Aev-46" edge="1">
          <mxGeometry width="100" relative="1" as="geometry">
            <mxPoint x="980" y="240" as="sourcePoint" />
            <mxPoint x="1080" y="240" as="targetPoint" />
          </mxGeometry>
        </mxCell>
        <mxCell id="MaADvUMPTTQarUst9Aev-25" value="" style="startArrow=oval;startFill=0;startSize=7;endArrow=block;endFill=0;endSize=10;dashed=1;html=1;" parent="MaADvUMPTTQarUst9Aev-20" source="MaADvUMPTTQarUst9Aev-15" target="MaADvUMPTTQarUst9Aev-24" edge="1">
          <mxGeometry width="100" relative="1" as="geometry">
            <mxPoint x="440" y="-20" as="sourcePoint" />
            <mxPoint x="620" y="600" as="targetPoint" />
          </mxGeometry>
        </mxCell>
        <mxCell id="MaADvUMPTTQarUst9Aev-50" value="" style="startArrow=oval;startFill=0;startSize=7;endArrow=block;endFill=0;endSize=10;dashed=1;html=1;exitX=0.5;exitY=0;exitDx=0;exitDy=0;entryX=0.5;entryY=1;entryDx=0;entryDy=0;" parent="MaADvUMPTTQarUst9Aev-20" source="MaADvUMPTTQarUst9Aev-46" target="MaADvUMPTTQarUst9Aev-48" edge="1">
          <mxGeometry width="100" relative="1" as="geometry">
            <mxPoint x="1260" y="410" as="sourcePoint" />
            <mxPoint x="1360" y="410" as="targetPoint" />
          </mxGeometry>
        </mxCell>
        <mxCell id="MaADvUMPTTQarUst9Aev-7" value="БД ошибок фиас" style="shape=datastore;whiteSpace=wrap;html=1;" parent="1" vertex="1">
          <mxGeometry x="245" y="150" width="70" height="70" as="geometry" />
        </mxCell>
        <mxCell id="MaADvUMPTTQarUst9Aev-8" value="" style="startArrow=oval;startFill=0;startSize=7;endArrow=block;endFill=0;endSize=10;dashed=1;html=1;entryX=0.5;entryY=0.063;entryDx=0;entryDy=0;entryPerimeter=0;" parent="1" source="MaADvUMPTTQarUst9Aev-7" target="MaADvUMPTTQarUst9Aev-3" edge="1">
          <mxGeometry width="100" relative="1" as="geometry">
            <mxPoint x="290" y="70" as="sourcePoint" />
            <mxPoint x="290" y="100" as="targetPoint" />
          </mxGeometry>
        </mxCell>
        <mxCell id="MaADvUMPTTQarUst9Aev-69" value="" style="startArrow=oval;startFill=0;startSize=7;endArrow=block;endFill=0;endSize=10;dashed=1;html=1;exitX=0.5;exitY=0;exitDx=0;exitDy=0;entryX=1;entryY=0.5;entryDx=0;entryDy=0;" parent="1" source="MaADvUMPTTQarUst9Aev-54" target="MaADvUMPTTQarUst9Aev-7" edge="1">
          <mxGeometry width="100" relative="1" as="geometry">
            <mxPoint x="1230" y="180" as="sourcePoint" />
            <mxPoint x="1330" y="180" as="targetPoint" />
            <Array as="points">
              <mxPoint x="1250" y="185" />
            </Array>
          </mxGeometry>
        </mxCell>
      </root>
    </mxGraphModel>
  </diagram>
</mxfile>
